inDegrees=no
nColumns=24
nRows=18
DataType=double
version=3
OpenSimVersion=4.5
endheader
time	pelvis_tilt	pelvis_list	pelvis_rotation	pelvis_tz	pelvis_ty	pelvis_tx	hip_flexion_r	hip_adduction_r	hip_rotation_r	knee_angle_r	ankle_angle_r	subtalar_angle_r	mtp_angle_r	hip_flexion_l	hip_adduction_l	hip_rotation_l	knee_angle_l	ankle_angle_l	subtalar_angle_l	mtp_angle_l	lumbar_extension	lumbar_bending	lumbar_rotation
0.6100000000000001	0.01091897765127268	0.08635987481561931	0.1398574152317912	-0.02160058000000001	0.97897542	0.7369164	0.4980165057966405	-0.1648156743873923	-0.3264645827137946	-0.2227088970329211	-0.007864668110451519	0.0430693377587533	0	-0.3316675734494722	0.05463969434755985	-0.2145086673826251	-0.2093997038169376	0.2840210891324786	0.2481400539590137	0	-0.2361149061059736	-0.04412049319309463	-0.03011829553005702
0.6199999999999999	0.01177376866469318	0.08132650586376049	0.1467598135083903	-0.02133743000000002	0.97877837	0.7513155300000001	0.4974694122713165	-0.1622974316612059	-0.3260073834187921	-0.2424587187408468	-0.05011387704995608	0.03073647387235382	0	-0.3362242090728761	0.04087558647256475	-0.2070314082609095	-0.2274927635293602	0.2642705760996362	0.2569454016528138	0	-0.2340246985720547	-0.03382543175902659	-0.03116350829282825
0.6300000000000001	0.01423233458836901	0.07431088986646041	0.1511315323239231	-0.0206905	0.9788416600000001	0.7656014600000001	0.4991269477967441	-0.1572313421085937	-0.3167503980961838	-0.2710562528685722	-0.05991111350908881	0.02049391927256862	0	-0.3376837261736235	0.02461529404060163	-0.2020257744701254	-0.2535009376508023	0.2355528818124976	0.2598825214796167	0	-0.234068148892849	-0.02188394067862725	-0.02816019493428132
0.6399999999999999	0.0162570628450889	0.06616539757233898	0.1548353381038333	-0.01980488999999999	0.9794778900000001	0.78016726	0.4990535764239183	-0.1494553077516779	-0.3022643033601747	-0.2982298438944959	-0.07488899246095916	0.007705088293618548	0	-0.3358633046541609	0.007444522155468858	-0.1960565395123933	-0.2833236574832439	0.2052925828038398	0.2649225379075992	0	-0.2329742962472857	-0.009409754166568213	-0.02474123891928771
0.6500000000000001	0.0148100784749468	0.05246449189080209	0.1572234153338652	-0.01841846	0.9801009000000001	0.79472597	0.4988846494962763	-0.1307496322358175	-0.2739048014246265	-0.3183924797782826	-0.09902008993008964	-0.05081034126318646	0	-0.3240236449835021	-0.01618321520153655	-0.1952670099801235	-0.3224200254711955	0.1811575044132184	0.2848520201435339	0	-0.2268836996454832	0.008662545901599502	-0.01893715836001949
0.6599999999999999	0.02059956412597441	0.04758318586203453	0.1578145194552543	-0.01733385000000001	0.98165451	0.8095937400000001	0.4937911066126618	-0.1230228730615416	-0.2570503476026045	-0.3492087930391372	-0.1048175914707425	-0.05546108643612118	0	-0.3206740635373472	-0.02930434116210307	-0.187954953602492	-0.3603971097955857	0.1393378100070554	0.2830959906269614	0	-0.230697350875241	0.01759223695996409	-0.01580472781233803
0.6700000000000002	0.02157897843445797	0.03986349801667635	0.1574941192023138	-0.01610975000000001	0.98308872	0.8246883100000001	0.4908445082517573	-0.1103654285488194	-0.2372043680267377	-0.3727076125236086	-0.1073433312587308	-0.08207406182380816	0	-0.3088051051990681	-0.0436992073635775	-0.1803370593403092	-0.401322359437483	0.08453154178475103	0.2771730025310841	0	-0.2269883949659933	0.02940278034990943	-0.01297925390525844
0.6799999999999999	0.01950138534765143	0.03367515317861782	0.1574392637577584	-0.01472124	0.98430439	0.8389992000000001	0.4883484617503331	-0.0982377696548281	-0.2173694524420652	-0.3885229110970943	-0.1110899897704801	-0.1348150313276793	0	-0.2834863879684426	-0.05589431555370972	-0.1691482085131096	-0.4593252768991642	0.04070909689722313	0.2595702681138009	0	-0.2219626893652125	0.03770893944302965	-0.009253397449264898
0.6899999999999997	0.0203784404200734	0.02616511123100847	0.1578413031165173	-0.01347217000000001	0.98588937	0.8533537	0.4813423800910662	-0.08666746123710889	-0.2111699848195172	-0.4061455845048181	-0.09052365748537798	-0.1473072200383081	0	-0.260939153408085	-0.06831564476937212	-0.154210458345934	-0.5140445064243362	-0.02815924093731218	0.2447368088743478	0	-0.2195300511991121	0.04842915906862623	-0.006271668403044451
0.7	0.0134155080725157	0.01702281878749014	0.1615680423977716	-0.01247676	0.98671962	0.86686476	0.4799290992056652	-0.0759764266581983	-0.2120526763620671	-0.4160139876368655	-0.07749350332141314	-0.1554206612716865	0	-0.2200684055118055	-0.08045121838245541	-0.1326256339398428	-0.5849323518209177	-0.06926719408876922	0.2097239976856642	0	-0.2086484723935101	0.05994753469085357	-0.006095323651548523
0.7099999999999997	0.01837378232345484	0.01203761027558219	0.1603830202174008	-0.01120119999999999	0.9883664	0.88021689	0.4673477543644556	-0.06647682957398858	-0.2135856133557936	-0.4303178925137137	-0.05408605636113963	-0.1603545618556807	0	-0.195375608031374	-0.0886321139734295	-0.1179829082953049	-0.6490838959876351	-0.1088182690415514	0.1903544439518398	0	-0.2140518117429523	0.0681189534930552	-0.004060101319450318
0.72	0.01273823172395387	0.001177786484309274	0.1679677145795878	-0.01067148000000001	0.9895155	0.8932875	0.4615043080784415	-0.05684175601898177	-0.2270748032501999	-0.4356146746253997	-0.03082122234844168	-0.164140732352767	0	-0.1507139842303448	-0.1010891528001206	-0.09461459842364517	-0.7225141178251678	-0.1404669289500174	0.1465871176092874	0	-0.203529183110902	0.08185678805415542	-0.004661495528462385
0.7299999999999998	0.006423985240557331	-0.007044185901989963	0.1732687753385326	-0.01014407000000001	0.99045085	0.90563024	0.45892278163344	-0.05014363142304408	-0.2385177508036108	-0.4445374630811056	-0.01374712931203171	-0.1627408182459752	0	-0.1040517156876932	-0.1076431666069187	-0.07108863732397594	-0.7949683876733009	-0.1756020236656823	0.1054871221120219	0	-0.1949544265725461	0.09211664497548028	-0.005267257249394644
0.74	-0.0009525656133545963	-0.0140271927923331	0.1774055001132248	-0.009627479999999994	0.99148419	0.9174907600000001	0.4547934743439566	-0.04383397749962629	-0.2473384455265896	-0.4475623645917034	0.002759945171247622	-0.1584904596319625	0	-0.05551311417752436	-0.1096974929639434	-0.04734761361228331	-0.8640226947029593	-0.2034571449950918	0.05985525372277996	0	-0.1862323125835761	0.1002343338166593	-0.00343156060831858
0.7499999999999998	-0.007050814799666727	-0.02122441706793142	0.1806144263799566	-0.009023599999999993	0.9926636400000001	0.9292476900000001	0.4489724094621385	-0.03631538583963083	-0.2535677610718735	-0.4491956655223353	0.01914465339893916	-0.1584376875076334	0	-0.008804725134855942	-0.1117647262053195	-0.02790081474735836	-0.9281410587643329	-0.2231291208295884	0.00806465701185714	0	-0.1794183208145862	0.1082878859966177	-0.0002615175171249524
0.76	-0.01287246131689899	-0.02576940329394151	0.1799822197287688	-0.008259359999999993	0.99404431	0.94080938	0.4417712343754849	-0.0301149708523649	-0.2579028653694472	-0.4480231119665423	0.03076478730161137	-0.1547597015932977	0	0.03495395414845034	-0.1096576851452981	-0.01425089608587252	-0.9864510005853909	-0.2191148321340749	-0.04558922720308897	0	-0.1737870037657217	0.1128740173353143	0.006809077096349156
0.7699999999999998	-0.01400758648760417	-0.03041832108209967	0.1820627537709299	-0.007128930000000006	0.99622877	0.9529033100000001	0.4274511482020756	-0.02128992362729751	-0.256934980815449	-0.4443060303278961	0.04438652989125178	-0.1574650059161861	0	0.07230135736357562	-0.1099371619258931	-0.0003893182044046859	-1.037723391064505	-0.2042185244609221	-0.08765023170429738	0	-0.1724942715500253	0.1170608136759632	0.01061891129103288
0.78	-0.01532241761585173	-0.03443509298427728	0.1809131873543861	-0.005999100000000007	0.9983556	0.9646313900000001	0.4133469648421916	-0.013175145646245	-0.2575199197112074	-0.4390893240968245	0.05161145070597743	-0.1559742585919351	0	0.109470868767356	-0.110520445376856	0.005903655956417635	-1.084038225988674	-0.1864783289589494	-0.1264023589791001	0	-0.1715847427776993	0.1203094501651046	0.01901165756460794
